<svg width="19" height="19" viewBox="0 0 19 19" fill="none" xmlns="http://www.w3.org/2000/svg">
<path d="M6.54635 3.12848L5.47385 2.05598C3.67385 3.42848 2.48885 5.54348 2.38385 7.94348H3.88385C3.99635 5.95598 5.01635 4.21598 6.54635 3.12848ZM15.8388 7.94348H17.3388C17.2263 5.54348 16.0414 3.42848 14.2489 2.05598L13.1839 3.12848C14.6989 4.21598 15.7263 5.95598 15.8388 7.94348ZM14.3614 8.31848C14.3614 6.01598 13.1314 4.08848 10.9864 3.57848V3.06848C10.9864 2.44598 10.4839 1.94348 9.86135 1.94348C9.23885 1.94348 8.73635 2.44598 8.73635 3.06848V3.57848C6.58385 4.08848 5.36135 6.00848 5.36135 8.31848V12.0685L3.86135 13.5685V14.3185H15.8613V13.5685L14.3614 12.0685V8.31848ZM9.86135 16.5685C9.96635 16.5685 10.0638 16.561 10.1614 16.5385C10.6489 16.4335 11.0464 16.1035 11.2414 15.6535C11.3163 15.4735 11.3539 15.2785 11.3539 15.0685H8.35385C8.36135 15.8935 9.02885 16.5685 9.86135 16.5685Z" fill="#046AF3"/>
</svg>
