<svg width="17" height="17" viewBox="0 0 17 17" fill="none" xmlns="http://www.w3.org/2000/svg">
<path d="M8.33663 5.40183C9.06996 5.40183 9.66996 4.80184 9.66996 4.0685C9.66996 3.33517 9.06996 2.73517 8.33663 2.73517C7.6033 2.73517 7.0033 3.33517 7.0033 4.0685C7.0033 4.80184 7.6033 5.40183 8.33663 5.40183ZM8.33663 6.73517C7.6033 6.73517 7.0033 7.33517 7.0033 8.0685C7.0033 8.80183 7.6033 9.40183 8.33663 9.40183C9.06996 9.40183 9.66996 8.80183 9.66996 8.0685C9.66996 7.33517 9.06996 6.73517 8.33663 6.73517ZM8.33663 10.7352C7.6033 10.7352 7.0033 11.3352 7.0033 12.0685C7.0033 12.8018 7.6033 13.4018 8.33663 13.4018C9.06996 13.4018 9.66996 12.8018 9.66996 12.0685C9.66996 11.3352 9.06996 10.7352 8.33663 10.7352Z" fill="#046AF3"/>
</svg>
